<svg id="e017205a-9a9c-4f36-971c-719da47f9892" data-name="Draw Layer" xmlns="http://www.w3.org/2000/svg" width="2004.81" height="1681.56" viewBox="0 0 2004.81 1681.56"><title>signature</title>
  <path d="M1270.53,79.64l-7.16,1a84.21,84.21,0,0,0-10.29,2.92c-3.52,1.23-6.94,2.84-10.38,4.3-7.35,3.1-14.2,7.43-20.89,11.72-14,9-26.57,20-39.39,30.54-3,2.47-5.79,5.19-8.65,7.81l-14.46,13.22c-3.25,3-6.26,6.26-9.37,9.38l-13.18,13.22c-3.5,3.5-6.76,7.25-10.13,10.88-3.16,3.39-6.39,6.74-9.47,10.21q-11.85,13.32-23.68,26.66c-14.43,16.24-28.46,32.82-42.34,49.53-13.07,15.76-25.92,31.68-38.38,47.92-6.6,8.6-13.3,17.11-19.78,25.78Q980.92,360.87,968.84,377c-5.93,7.95-11.6,16.08-17.37,24.15s-11.6,16.32-17.3,24.56-11.31,16.34-16.76,24.66c-6.38,9.75-12.92,19.42-19.16,29.27-11.14,17.59-22.39,35.14-33.43,52.8q-19.19,30.67-38,61.58c-9.88,16.21-19.57,32.55-29.29,48.87q-17.22,28.89-34.34,57.85c-21.56,36.67-43,73.4-63.8,110.53q-20.1,35.94-40.08,72-4.06,3.33-8.16,6.63s0,.05,0,0c2.21-1.3,4.41-2.6,6.61-3.92q-13,23.43-25.91,46.91c-11.15,20.29-22.08,40.7-33,61.13a86,86,0,0,0-17.3-7,60,60,0,0,0-9.85-1.92,103.77,103.77,0,0,0-13.18-.94c-6.86-.08-13.79,1.09-20.53,2.25a148.54,148.54,0,0,0-19,4.86,280.89,280.89,0,0,0-39.68,16.07,378.27,378.27,0,0,0-35.88,20.19c-4.67,2.92-9.16,6.17-13.72,9.25l-14.88,10c-3.39,2.29-6.57,5-9.82,7.46l-17.76,13.55c-2.79,2.14-5.67,4.22-8.35,6.52l-30.73,26.41c-7.12,6.12-13.7,12.88-20.47,19.38l-14.61,14c-1.77,1.7-3.49,3.4-5.17,5.19l-29.13,31.15c-2.74,2.93-5.47,5.87-8.22,8.8-2.53,2.7-4.81,5.67-7.21,8.5q-13.23,15.63-26.46,31.26c-1.79,2.11-3.43,4.35-5.1,6.57l-13.56,18c-5.32,7.08-10.77,14.06-15.79,21.36L178,1300.49c-4.91,7.14-9.15,14.68-13.58,22.13Q159,1331.8,153.52,1341c-1.42,2.39-2.9,4.76-4.23,7.21L129.68,1384q-2.64,4.83-5.29,9.66c-.6,1.1-1.08,2.29-1.62,3.42q-2.34,5-4.7,10-4.51,9.57-9,19.15c-3.75,7.94-7.17,16-10.57,24.14-5.68,13.54-11,27.19-15.79,41.06-5.38,15.58-10,31.42-14.12,47.38-3.85,14.92-7,30-9.69,45.18-2.8,15.84-5,31.87-5.3,48-.15,7,.18,14,.56,21,.43,7.71,1.14,15.41,2.24,23.06a190.41,190.41,0,0,0,4.29,21.28,104.48,104.48,0,0,0,9.18,22.37A63.27,63.27,0,0,0,81.91,1735a70.54,70.54,0,0,0,8,6.19l2.59,1.52c2.16.94,4.33,1.87,6.49,2.77a52,52,0,0,0,10.1,2.14l3.09.34a27,27,0,0,0,5.74-.4,69.23,69.23,0,0,0,9.49-1.87,67.73,67.73,0,0,0,12-5c6.43-3.17,12.21-7.42,18-11.63a206.28,206.28,0,0,0,16.47-13.48c9.34-8.35,17.57-17.91,25.54-27.55,13.6-16.47,27.1-33,39.9-50.11,6.43-8.59,13-17.09,19.25-25.81L279,1583.55c7.05-9.87,13.69-20,20.54-30,5.44-8,10.67-16.07,16-24.14,12.88-19.59,25.45-39.38,38-59.17,4.77-7.49,9.34-15.1,14-22.66,5.23-8.52,10.63-17,15.66-25.61q17.67-30.35,35.11-60.8c20.74-36.3,41.34-72.69,61.51-109.31q33.64-61.1,66.86-122.45c18.09-33.31,36.29-66.55,54.26-99.92,2.17,2.28,4.17,4.73,6.12,7.2a194.3,194.3,0,0,1,14.3,22.71c3.82,7,7.06,14.29,10.19,21.62L637,1095.5c1.62,4.21,3.33,8.39,4.8,12.66,3.53,10.26,7.09,20.52,10.53,30.82q5.6,16.68,11.43,33.26,4.86,13.74,10.92,27a113.54,113.54,0,0,0,9.42,16.59,81,81,0,0,0,6.47,8.09c3,3.42,6.79,6.08,10.41,8.8a37.05,37.05,0,0,0,9,4.45,51.25,51.25,0,0,0,19.06,3.64c1.19-.06,2.38-.13,3.58-.18,2.55-.32,5.11-.66,7.66-1a75.29,75.29,0,0,0,10-2.65,100.47,100.47,0,0,0,9.71-4.2c7.24-3.39,14-8.22,20.13-13.26a196,196,0,0,0,29.49-30.36,394.93,394.93,0,0,0,26.94-38.74c2.74-4.44,5.19-9,7.73-13.61q5.67-10.21,11.34-20.41c1.32-2.37,2.54-4.72,3.7-7.16q4.95-10.37,9.91-20.73l5.75-12c1.88-4,3.39-8.13,5.06-12.16q4.21-10.26,8.45-20.51c1.41-3.42,3-6.83,4.24-10.31q6.18-16.91,12.4-33.8c3.17-8.65,6.13-17.37,9.14-26.09,11.49-33.26,22.73-66.66,35.57-99.43.47,9.89.8,19.78,1.57,29.64q.82,10.62,1.66,21.22c.82,10.49,2.18,20.91,3.78,31.3,2.2,14.26,5.29,28.73,11,42a87.16,87.16,0,0,0,9.08,16.85,85.06,85.06,0,0,0,5.4,6.61,50.61,50.61,0,0,0,8.7,7.28,39.05,39.05,0,0,0,8.1,4.11,46.69,46.69,0,0,0,27.88,2.57,73.72,73.72,0,0,0,19.12-6,129.43,129.43,0,0,0,21.09-12.59c23.37-17.12,42.08-40,59-63.32q6.65-9.18,12.83-18.68a30.68,30.68,0,0,0,4.1-2.23,57.15,57.15,0,0,0,7.22-5.48,97.1,97.1,0,0,0,11.74-11.82,214,214,0,0,0,19.36-26.79,374.33,374.33,0,0,0,19-35.16,331,331,0,0,0,20.65-52.06c0,.24.07.47.1.7a131.82,131.82,0,0,0,4.19,19.37c1.9,6.18,4.51,12.45,8.92,17.29a28.91,28.91,0,0,0,5.79,5.31l2.35,1.47c1.59.7,3.22,1.34,4.87,1.93,2.54,1,6,1,8.64,1.25a35.35,35.35,0,0,0,8.71-.51,49.74,49.74,0,0,0,9.53-2.51,49,49,0,0,0,7.68-3.89,63.65,63.65,0,0,0,7.09-5.1q5.13-4.06,10-8.39a172.49,172.49,0,0,0,13.94-14.29q6.68-7.41,12.75-15.33a376.38,376.38,0,0,0,26.09-38.81c2.83-4.81,5.32-9.88,8-14.8,2.14-4,4.37-7.87,6.27-12q4.41-9.44,8.79-18.86c1.92-4.12,3.63-8.3,5.36-12.5q3.52-8.57,7-17.15c2.21-5.34,4.13-10.82,6.18-16.23,3-7.84,5.86-15.72,8.83-23.57-.17,1.93-.35,3.87-.53,5.8q-1,11.17-2.17,22.36c-.6,5.87-1.19,11.75-1.85,17.63-.36,3.22-.72,6.44-1.11,9.65-.21,1.76-.43,3.51-.65,5.26a31,31,0,0,0-.49,5.51c.24,2,.55,4,.94,5.95.41,2.43,2.51,4.74,4.56,5.94s5.32,2,7.65,1,5.59-1.73,7.33-3.78a41.75,41.75,0,0,0,4.37-6c1.38-2.3,2.44-5,3.6-7.39,1.82-3.83,3.36-7.83,5-11.76,2.53-6.3,4.75-12.73,7.08-19.1,3.57-9.76,6.8-19.67,9.94-29.58,4.22-13.34,8.29-26.74,12.61-40.06.27,7.2.53,14.42,1,21.61.84,12.79,2.7,25.78,9,37.12a44.84,44.84,0,0,0,5.6,7.2c1.94,2.26,4.66,4,7.07,5.64l2.57,1.24a44.94,44.94,0,0,0,5.2,2c3.57,1.25,7.72,1.45,11.46,1.65,3,.16,6.13-.58,9-1a53.57,53.57,0,0,0,9.38-2.72,92.75,92.75,0,0,0,18-8.89c13-8,24.6-18.27,35.59-28.8,5.23-5,10.18-10.34,15.07-15.68,2.09-2.29,4.18-4.59,6.14-7q6.92-8.46,13.85-16.92c2.86-3.48,5.94-6.89,8.55-10.58s5.37-7.57,8-11.37a77.25,77.25,0,0,0,14.63-8.06,97.12,97.12,0,0,0,14.82-13.55,239.22,239.22,0,0,0,15.5-18.86,269.17,269.17,0,0,0,23.21-37c4.25-8.05,7.84-16.43,11.48-24.79l.6,1c5.55,8.72,13.82,15.08,22.62,20.24a94.12,94.12,0,0,0,14.55,6.47,97.14,97.14,0,0,0,17,4.22,208.76,208.76,0,0,0,35,3.1c24.48.33,48.48-5.5,71.68-12.78,11.88-3.74,23.67-7.88,35.28-12.36,12.22-4.72,24.13-10.27,35.93-15.94q35.25-16.94,70.16-34.58c7-3.53,13.94-7.2,20.9-10.84,8-4.2,16-8.43,23.74-13.2a0,0,0,0,0,0-.05c-12.28,5-25.07,8.86-37.66,13.05-11.7,3.9-23.42,7.73-35.11,11.66q-8.83,3-17.65,6c-14,4.79-27.79,10.09-41.65,15.23-16.17,6-32.56,11.27-49,16.61-17.24,5.61-34.69,10.5-52.62,13.25a194.69,194.69,0,0,1-24,1.21,201.62,201.62,0,0,1-22.77-1.73,124.34,124.34,0,0,1-25-6.16,84.5,84.5,0,0,1-13.63-7.82,58.38,58.38,0,0,1-6.35-6.23,73.12,73.12,0,0,1-4.72-7.94,70.29,70.29,0,0,1-2.22-8.06c-.12-.86-.25-1.73-.38-2.61a20.67,20.67,0,0,0-1.44-6.19,12,12,0,0,0-8.22-8.22,11.74,11.74,0,0,0-11.46,3l-1.61,1.77a12.73,12.73,0,0,0-2.94,4.76c-1.28,2.71-1.8,5.59-2.94,8.34q-1.42,3.48-2.9,6.94l.05-.13c1.55-4.19,2.77-8.48,4.08-12.75,1.63-5.34,3.18-10.67,4.64-16.06,2.56-9.46,5.77-19.09,5.24-29l-.42-3.1a51.65,51.65,0,0,0-2.06-5.26c-1.5-2.55-3.9-4-6.2-5.68l-2.83-1.19a14.08,14.08,0,0,0-5.74-1.34,11.36,11.36,0,0,0-5.76.12,18.54,18.54,0,0,0-6.34,1.5c-6.19,2.05-11.89,5.94-17,9.94a118.87,118.87,0,0,0-14.15,13.42c-10.14,11.05-18.57,23.39-26.72,35.94a255.48,255.48,0,0,0-20.45,38.09c-2.68,6.21-5.09,12.53-7.4,18.89-2.86,7.84-5,15.9-7.28,23.94a132.85,132.85,0,0,0-3.88,19.29,60.93,60.93,0,0,0-.5,9.35,52.32,52.32,0,0,0,1.45,9.23c.41,1,.81,2,1.2,3a17.19,17.19,0,0,0,2.73,5.12,24.38,24.38,0,0,0,6,6.25l2.44,1.84c1.71.78,3.42,1.53,5.17,2.24.56.15,1.12.29,1.69.42L1579.94,602c-4.78,5.79-9.88,11.27-15,16.72a271.68,271.68,0,0,1-27.8,25.61c-7.25,5.35-14.56,10.39-22.73,14.21a71.26,71.26,0,0,1-12,3.66,45.63,45.63,0,0,1-6.19-.09,30.66,30.66,0,0,1-4.22-1.17,19.12,19.12,0,0,1-2.18-1.28,29,29,0,0,1-3.51-3.59,27.47,27.47,0,0,1-1.88-3.12,72.14,72.14,0,0,1-3.61-13.35c-1.4-12.82-1.33-25.7-1.57-38.58-.08-4.62-.15-9.23-.33-13.84a83.7,83.7,0,0,0-1-12.75,18.47,18.47,0,0,0-1.46-5.52c-.89-2.41-2.14-4.7-3.27-7a10.44,10.44,0,0,0-6.37-4.9c-3.87-1.06-7.47.2-10.38,2.74-1.75,1.54-4,3.35-5.06,5.47a56.26,56.26,0,0,0-3.32,7.79c-1.05,3-2.05,6.1-3.1,9.14q-3,8.58-5.86,17.19c-3.14,9.23-6.14,18.51-9.17,27.78q-4.83,14.72-9.76,29.36c.38-3,.76-6.08,1.13-9.12q1.13-9,1.9-18.1c.41-4.82.6-9.67.62-14.52,0-4.55-1.19-8.9-2.52-13.22a10.26,10.26,0,0,0-12.39-7,11.87,11.87,0,0,0-3.85,1.35,11.13,11.13,0,0,0-4.83,4.11,9.92,9.92,0,0,0-2.13,3.9c-.86,2.18-1.65,4.36-2.51,6.54-2,5.19-3.76,10.53-5.67,15.77q-5,13.71-10,27.4c-3.13,8.56-6.4,17.08-9.63,25.6-3,7.78-6.28,15.42-9.47,23.1-4.55,9.78-8.84,19.71-14,29.21q-5.25,9.69-10.49,19.39c-3.41,6.3-7.41,12.33-11.31,18.32-4.35,6.66-9,13.11-13.85,19.44-4.88,6.17-10,12.13-15.28,17.94A179.12,179.12,0,0,1,1277.08,824a70.55,70.55,0,0,1-9.08,5.74,49.22,49.22,0,0,1-7,2,57.91,57.91,0,0,1-8,.1,18.69,18.69,0,0,1-2.52-.66l-1.47-.87a38.44,38.44,0,0,1-4-4.09,28.94,28.94,0,0,1-2-3.56,91.63,91.63,0,0,1-3.56-11.58c-.91-3.89-1.45-7.9-2-11.86a258.1,258.1,0,0,1-1.73-45.06c.26-4.82.48-9.66.74-14.49.44-2.22.87-4.45,1.31-6.67.71-3.63,1.34-7.28,2.09-10.91a16.67,16.67,0,0,0,0-7.47,12.34,12.34,0,0,0-3.12-4.92,9.28,9.28,0,0,0-9.05-2.39,9.49,9.49,0,0,0-6.5,6.5c-2.57,8.49-2.62,17.56-2.86,26.38,0,.61,0,1.21,0,1.82s-.26,1.32-.4,2c-1.56,7.59-3.34,15.08-5.19,22.59-1.68,6.85-3.7,13.56-5.71,20.31l-3.42,11.5a266.55,266.55,0,0,1-9.3,25.23c-.37.85-.74,1.71-1.12,2.56q1-2.73,2-5.46c1.43-3.91,2.94-7.79,4.14-11.78q3-9.84,5.92-19.69c1.45-4.8,2.49-9.7,3.67-14.57,2.53-10.48,4.68-21,6.77-31.6a107.86,107.86,0,0,0,1.87-11c.1-.91.18-1.83.26-2.74a20.65,20.65,0,0,0-.29-6.61,21,21,0,0,0-2.12-7.31,18.62,18.62,0,0,0-10.76-9.6l-2.41-.78c-1.76-.27-3.53-.48-5.3-.65q-2.82.35-5.62.8a37.21,37.21,0,0,0-5.33,2,45.49,45.49,0,0,0-7.59,4.59,59,59,0,0,0-6.79,6,78.86,78.86,0,0,0-5.83,7.06c-2,2.64-3.94,5.31-5.79,8.09a155.12,155.12,0,0,0-9.78,18.08c-3.64,7.49-6.68,15.29-9.56,23.1a411.13,411.13,0,0,0-12.54,41.4c-1.53,6-2.7,12.11-4,18.17q-1.77,8.22-3.51,16.44c-.3,1.43-.48,2.89-.72,4.33-.7,4.25-1.39,8.49-2.09,12.75-1.35,8.23-2.48,16.5-3.64,24.76-.61,4.44-1,8.91-1.52,13.36-.37,3.4-.53,6.81-.64,10.22-.14,5.06-.43,11.11,2.24,15.67.11.18.24.37.36.54q-5.64,7.95-11.54,15.69c-13.82,17.68-28.85,34.36-46.28,48.57a124.71,124.71,0,0,1-23.37,14,81.93,81.93,0,0,1-11.71,3.25,57.83,57.83,0,0,1-8.93.2,50.91,50.91,0,0,1-6.06-1.7,52.46,52.46,0,0,1-5.36-3,60.74,60.74,0,0,1-5.77-5.91,78.52,78.52,0,0,1-6.34-11.33c-4.33-11.39-6.63-23.24-8.34-35.29-1.1-9.18-2-18.43-2.31-27.68-.17-5.49-.35-11-.51-16.46q-.37-11.88-.44-23.74c-.05-8.31-.09-16.61-.3-24.93l-.42-16.29c-.09-3.36-.35-6.73-.6-10.09a68.4,68.4,0,0,0-1.6-9.84c-.48-1.15-1-2.29-1.45-3.43a32.51,32.51,0,0,0-2.56-4.76c-4.64-7.79-15.82-9.46-22.27-2.87a17.26,17.26,0,0,0-2.34,2.63l-2.14,2.78c-.91,2.06-1.79,4.14-2.66,6.21-.85,2.81-1.77,5.55-2.71,8.33-1.41,4.16-2.91,8.29-4.39,12.42-2.73,7.54-5.59,15-8.45,22.54-6.38,16.77-12.77,33.51-19,50.31Q895.82,950.2,885,978.91c-5.76,15.33-11.93,30.5-18,45.7q-7.25,16.4-14.52,32.79c-4.3,9.7-9.4,19-14.22,28.46-2,4-3.9,8.2-6.18,12.09l-8.91,15.23q-5.19,8.89-10.4,17.79c-2.62,4.48-5.57,8.79-8.44,13.12-4.23,6.41-8.72,12.63-13.37,18.74-9.62,12.23-20,23.71-32,33.65a107.84,107.84,0,0,1-17.9,10.86,75.11,75.11,0,0,1-10.23,2.77,60.53,60.53,0,0,1-6.6.07,51.33,51.33,0,0,1-6.56-1.8,52.76,52.76,0,0,1-5-3.14,63.79,63.79,0,0,1-5.71-5.8c-2-2.77-3.9-5.61-5.65-8.58a129.49,129.49,0,0,1-6.67-13.46c-8.53-21-14.95-42.8-22.07-64.29-1.52-4.6-2.89-9.31-4.59-13.86l-6.75-18.1c-7.83-21-17.11-41.68-31.06-59.34a132.28,132.28,0,0,0-14.5-15.81c-.47-.43-1-.85-1.44-1.27q12.52-23.26,25.13-46.5c9.76-18,19.76-35.91,29.66-53.85,7.56-13.72,15.26-27.35,23-41q6.3-4.47,12.57-9,27-19.54,54.16-38.85c16.52-11.77,32.92-23.68,49-36.09,17.29-13.39,34.55-26.81,51.64-40.44C876,725.64,892.72,712.2,909,698.25s32.45-28,48.31-42.38c7.78-7.07,15.65-14,23.29-21.25l27.85-26.28c7.41-7,14.58-14.23,21.85-21.35,3.39-3.32,6.57-6.89,9.86-10.32l14.4-15.09c7.64-8,14.89-16.37,22.31-24.56,6.69-7.38,13.11-15,19.58-22.58l9.14-10.71c3.91-4.59,7.56-9.42,11.34-14.13,2.76-3.45,5.66-6.83,8.27-10.41l12.09-16.61q18.38-25.17,35.22-51.42c5.76-9,11.6-17.86,17-27,5.59-9.4,11.29-18.74,16.63-28.29s10.87-19.27,16-29,10.5-19.73,15.57-29.69q15.24-30,29.87-60.33c2.17-4.53,4.08-9.22,6.12-13.82s4.25-9.47,6.19-14.27c4.48-11.1,8.94-22.19,13.21-33.37,1.8-4.73,3.33-9.5,4.86-14.33.62-2,1.36-4,1.86-6l2.73-11c1.09-4.38,1.94-8.82,2.86-13.24.64-3.06,1.15-6.14,1.51-9.25.11-1,.22-1.9.34-2.85a33.92,33.92,0,0,0,0-7.47,38.91,38.91,0,0,0-1.6-8.49q-1.2-2.86-2.43-5.72a35.82,35.82,0,0,0-3.67-5.08,39.33,39.33,0,0,0-6.1-5.78l-3.13-2.42a57.69,57.69,0,0,0-6.83-3.14,67.59,67.59,0,0,0-10-1.17l-3,.2Zm1.86,30.73a14.25,14.25,0,0,1,2.08.27h0l-2-.27Zm2.1.27.14,0-.18,0Zm.7.24,1.26.84c.61.55,1.2,1.12,1.77,1.72l.25.45c.27.81.49,1.63.68,2.46a70.86,70.86,0,0,1-.2,12.27q-.39,3.74-.79,7.49-1,5.7-2,11.42c-.74,4.22-2,8.38-3.1,12.54-.77,3.06-1.66,6-2.65,9-1.35,4.12-2.57,8.32-4.07,12.38s-3,8.17-4.54,12.26c-1.33,3.59-2.53,7.25-4,10.78q-4.47,10.77-9,21.52c-4.21,9.31-8.4,18.62-12.79,27.85q-7.47,15.71-15.16,31.3c-5,10.08-10.09,20.05-15.23,30s-10.43,19.55-15.73,29.28-10.77,19-16.24,28.42c-5.32,9.19-11,18.15-16.61,27.14q-16.52,26.37-34.51,51.79-6.6,9.24-13.19,18.5l-8.74,11.19c-2.77,3.53-5.45,7.15-8.34,10.6l-22.24,26.57c-2.87,3.42-6,6.68-8.94,10q-7.62,8.54-15.24,17.07c-7,7.8-14.27,15.32-21.44,22.94-14.51,15.42-29.91,30-45.27,44.53-14.77,14-29.69,27.87-45,41.33-16.19,14.27-32.45,28.48-49.06,42.28s-33.18,27.26-50,40.59c-34.18,27-68.75,53.63-102.1,81.7-10.72,9-21.23,18.28-31.71,27.57q16.21-28.74,32.63-57.36,30.88-53.84,63-106.93,18.63-30.9,37.32-61.76c10-16.45,20-32.89,30.25-49.15,11.82-18.7,23.63-37.4,35.59-56,5.58-8.7,11.06-17.48,16.77-26.1l21.8-32.93c5.45-8.23,11.29-16.21,17-24.28,5.88-8.35,11.92-16.56,17.93-24.79,5.54-7.62,11.08-15.22,16.79-22.71q10.8-14.17,21.6-28.34l21.4-27.12c6.38-8.07,13.07-15.86,19.66-23.75q18.73-22.43,38.36-44.13c7.07-7.84,14.07-15.78,21.26-23.51q6.91-7.41,13.83-14.82c3.33-3.57,6.56-7.27,10-10.72,7.19-7.21,14.28-14.58,21.69-21.56,7.83-7.35,15.45-15,23.61-21.95q9.95-8.49,19.88-17,8.36-6.42,16.71-12.81c4.26-3.28,8.71-6.27,13.19-9.25a175,175,0,0,1,25.1-14c2.69-1.07,5.38-2.09,8.13-3a47.3,47.3,0,0,1,7.62-1.76c.9-.07,1.8-.1,2.71-.08Zm.29,0Zm.08,0a13.68,13.68,0,0,1,2.88,1.22l-2.85-1.2,0,0Zm-4.7.21-.33,0,.33,0Zm8,3.51c.07.15.15.3.21.45v.06l-.22-.51Zm.22.48c.19.41.36.82.51,1.25-.16-.4-.33-.79-.5-1.18v-.07Zm.4,3,.09.66-.09-.66Zm404.77,290.51-2.54.34h0a20,20,0,0,1,2.58-.34Zm-6.23,1.48h0l-.11,0,.11,0Zm0,.22c-1.91,12.4-5.31,24.44-8.77,36.47-2.65,9.16-6.19,18-9.48,27q-2.82,6.38-5.67,12.74c-1.72,3.84-3.24,7.86-5.2,11.58l-8.78,16.69c-2,3.81-3.86,7.76-6.11,11.43l-10,16.29-5,8.15c-.58.94-1.11,1.94-1.76,2.85l-4.08,5.67-2.08.91c-1.18.47-2.37.89-3.58,1.28a27.39,27.39,0,0,1-3.18.8,26.21,26.21,0,0,1-4.06,0,15.81,15.81,0,0,1-1.54-.4l-1.35-.82c-.39-.36-.75-.74-1.11-1.13-.27-.55-.55-1.1-.83-1.64a29.87,29.87,0,0,1-.84-3.22,61.65,61.65,0,0,1,.35-9.9,176.31,176.31,0,0,1,4.83-19.34c2.28-7.64,5-15.15,8-22.53A254.83,254.83,0,0,1,1623.19,473c3.15-5.22,6.59-10.26,10-15.28,3.86-5.6,7.74-11.16,11.82-16.61a171.56,171.56,0,0,1,23.19-24.69,80.55,80.55,0,0,1,9.73-6.11Zm-.09.88c0,.31-.08.62-.13.93,0-.31.08-.62.13-.93Zm-83.33,146.5,1.14,1.48,0,.1a18.54,18.54,0,0,1-1.18-1.58Zm1.17,1.52.39.5-.36-.41,0-.09Zm17.32,0h0c-.52.23-1,.45-1.57.66l1.57-.66Zm-16.5,1.75.68.28-.68-.28Zm7.36,1.24c-.78.13-1.57.24-2.36.31l2.36-.31Zm-2.76.12.79.1-.79-.1ZM1486.3,656.15l1.26,1.63c-.44-.53-.87-1.07-1.26-1.63Zm6,4.93,1.65.7c-.56-.21-1.11-.44-1.65-.7Zm-270,56.24c0,.21,0,.41-.08.62h0c0-.21.06-.41.08-.62Zm-22.59,8.58-2.23.3h0a16.53,16.53,0,0,1,2.24-.3Zm-2.85.43.18.9a65.48,65.48,0,0,1-.42,8.86c-1.34,8.36-2.88,16.67-4.47,25-.79,4.12-2,8.2-2.94,12.28-.79,3.25-1.46,6.53-2.46,9.72q-2.55,8.16-5.09,16.29c-.86,2.75-1.63,5.55-2.67,8.23q-5.1,13.33-10.23,26.65-5.15,11.22-10.3,22.43L1154.6,865c-1.2,2.62-2.81,5.12-4.2,7.64q-6.93,12.61-13.87,25.23c-2.6,4.72-5.49,9.31-8.46,13.84a59.61,59.61,0,0,1,.38-6.27l1.11-9.87c1-6.39,2-12.8,3.25-19.14q1.56-7.86,3.15-15.73c.47-2.31.88-4.65,1.45-7q3.46-13.8,6.93-27.62c1.63-6.48,3.65-12.86,5.63-19.24,3.39-10.89,7.39-21.59,11.75-32.12,5.36-12.22,11.43-24.21,19.35-35a83,83,0,0,1,9.38-10,50.63,50.63,0,0,1,5.36-3.17c.33-.11.67-.2,1-.29Zm.2.11a15.13,15.13,0,0,1,.7,1.65l-.7-1.65Zm-2.41.62-.38.16.38-.16Zm47.76,94.31.21.49-.21-.49Zm11,10.61,1.6.21c-.54-.05-1.07-.12-1.6-.21Zm-701.79,175.6a76.36,76.36,0,0,1,11.1.63,83,83,0,0,1,14.22,3.86,86.87,86.87,0,0,1,9.63,5.25q-6.82,12.78-13.69,25.54c-21.38,39.72-42.93,79.33-64.34,119q-30.15,55.88-61,111.36c-10.78,19.34-21.74,38.59-32.67,57.85-9.83,17.35-19.7,34.68-29.82,51.86q-9.22,15.69-18.45,31.39c-6,10.24-12.49,20.24-18.74,30.35-11.58,18.74-23.54,37.25-35.4,55.82-5.59,8.74-11.46,17.31-17.19,26-5.07,7.62-10.16,15.22-15.37,22.74-6.1,8.78-12,17.71-18.33,26.32l-20.78,28.32q-8.56,11-17.1,22c-5.24,6.73-10.75,13.23-16.18,19.82s-11.2,13.16-17,19.63c-3.08,3.47-6.14,7-9.3,10.33a249.17,249.17,0,0,1-25.51,24,149.12,149.12,0,0,1-26,15.87c-1.21.48-2.43.92-3.67,1.34a39.07,39.07,0,0,1-6.45,1.63,44.3,44.3,0,0,1-5.15.09,45.62,45.62,0,0,1-4.8-1.4,32.42,32.42,0,0,1-2.9-1.71,57,57,0,0,1-5.73-5.69,75.35,75.35,0,0,1-6.67-12,149.52,149.52,0,0,1-7.59-31c-1.32-11.56-2.17-23.21-2.47-34.83s.88-23.48,2.33-35.12A660.67,660.67,0,0,1,103,1516.62c7-25.86,16.13-51,26-75.84q6-14.12,12-28.26c1.14-2.67,2.16-5.44,3.48-8q3.51-6.84,7-13.68,8.26-16.17,16.56-32.33c1.18-2.3,2.5-4.52,3.77-6.77l10.47-18.64c3.86-6.88,7.46-14,11.82-20.57l22.63-34.3c1.77-2.67,3.43-5.45,5.31-8q4-5.49,8-11l19.54-26.88q16.61-20.05,33.19-40.12c1.14-1.39,2.42-2.67,3.64-4l10.87-11.81q11.43-12.39,22.84-24.8c3.68-4,7.67-7.67,11.57-11.45l24.09-23.38c4.85-4.71,10.19-9,15.31-13.37l20.79-17.91,18.72-14.16c5-3.75,9.82-7.69,15-11.1l24.92-16.31c5.37-3.52,11.06-6.56,16.69-9.64,8.55-4.68,17.35-8.84,26.31-12.68a208.61,208.61,0,0,1,45.71-13.17c4.07-.44,8.12-.72,12.23-.84ZM1263.36,92.65q-3.57.45-7.16.95a81.79,81.79,0,0,0-10.28,2.91c-3.53,1.24-7,2.84-10.39,4.3-7.34,3.1-14.2,7.44-20.88,11.72-14,9-26.58,20-39.39,30.54-3,2.47-5.8,5.19-8.66,7.81l-14.45,13.22c-3.26,3-6.27,6.27-9.38,9.38l-13.18,13.22c-3.49,3.5-6.76,7.25-10.13,10.88-3.16,3.39-6.39,6.74-9.47,10.21q-11.85,13.32-23.68,26.66c-14.43,16.25-28.46,32.82-42.33,49.54-13.07,15.75-25.93,31.68-38.39,47.91-6.59,8.6-13.3,17.11-19.78,25.78q-12.06,16.2-24.14,32.37c-5.93,7.95-11.6,16.07-17.37,24.15S932.71,430.52,927,438.75s-11.31,16.34-16.77,24.66c-6.38,9.75-12.92,19.42-19.16,29.27-11.14,17.59-22.38,35.14-33.43,52.8q-19.18,30.69-38,61.58c-9.88,16.22-19.58,32.55-29.3,48.87Q773.14,684.82,756,713.78c-21.55,36.67-43,73.4-63.8,110.53q-20.09,36-40.08,72c-2.7,2.22-5.43,4.43-8.16,6.63,0,0,0,.06,0,.05,2.2-1.3,4.41-2.61,6.6-3.93q-13,23.43-25.9,46.92c-11.15,20.28-22.08,40.7-33,61.12a86,86,0,0,0-17.3-7,60,60,0,0,0-9.85-1.92,101.92,101.92,0,0,0-13.17-.93c-6.87-.08-13.79,1.09-20.54,2.24a151.08,151.08,0,0,0-19.05,4.86,281.48,281.48,0,0,0-39.67,16.07,384.16,384.16,0,0,0-35.89,20.19c-4.66,2.92-9.16,6.18-13.71,9.26l-14.88,10c-3.4,2.29-6.58,5-9.83,7.47l-17.76,13.55c-2.79,2.14-5.67,4.21-8.34,6.51L341,1113.77c-7.12,6.13-13.71,12.89-20.48,19.38l-14.6,14c-1.78,1.69-3.5,3.39-5.18,5.18q-14.55,15.59-29.12,31.15-4.11,4.41-8.23,8.8c-2.53,2.71-4.81,5.68-7.21,8.5q-13.22,15.63-26.46,31.26c-1.79,2.11-3.42,4.36-5.09,6.57q-6.78,9-13.56,18c-5.33,7.07-10.78,14.06-15.8,21.35q-12.19,17.77-24.41,35.53c-4.9,7.14-9.15,14.67-13.58,22.12L146.35,1354c-1.42,2.38-2.89,4.76-4.23,7.2q-9.8,17.91-19.6,35.81-2.64,4.83-5.3,9.66c-.6,1.11-1.08,2.3-1.61,3.42l-4.71,10q-4.5,9.59-9,19.15c-3.74,8-7.16,16-10.57,24.15-5.68,13.53-11,27.18-15.79,41.06-5.38,15.58-10,31.42-14.12,47.37-3.85,14.92-7,30-9.69,45.19-2.8,15.84-5,31.86-5.3,48-.14,7,.18,14,.57,21,.42,7.72,1.13,15.41,2.23,23.07a188.49,188.49,0,0,0,4.3,21.27,104.48,104.48,0,0,0,9.18,22.37A62.8,62.8,0,0,0,74.74,1748a69.41,69.41,0,0,0,8,6.19l2.59,1.53q3.24,1.41,6.5,2.76a51,51,0,0,0,10.1,2.14l3.08.35a27.69,27.69,0,0,0,5.75-.41,70.59,70.59,0,0,0,9.48-1.86,68.52,68.52,0,0,0,12-5c6.43-3.17,12.22-7.42,18-11.62a208.48,208.48,0,0,0,16.47-13.48c9.34-8.36,17.57-17.92,25.54-27.56,13.6-16.46,27.1-33,39.9-50.11,6.43-8.58,13-17.09,19.25-25.81q10.23-14.28,20.44-28.56c7.05-9.87,13.69-20,20.54-30,5.44-8,10.67-16.08,16-24.14,12.87-19.6,25.44-39.38,38-59.17,4.77-7.49,9.35-15.1,14-22.67,5.23-8.52,10.62-17,15.65-25.61q17.67-30.35,35.11-60.8c20.74-36.3,41.35-72.69,61.51-109.3q33.66-61.11,66.86-122.46c18.09-33.31,36.29-66.55,54.26-99.92,2.17,2.29,4.17,4.73,6.13,7.2a195.64,195.64,0,0,1,14.3,22.71c3.81,7,7.06,14.3,10.18,21.63q2.79,7.26,5.57,14.52c1.62,4.21,3.33,8.4,4.8,12.66,3.53,10.27,7.09,20.53,10.54,30.82q5.58,16.69,11.43,33.26c3.23,9.17,6.87,18.14,10.91,27A114,114,0,0,0,677,1228.8a78.43,78.43,0,0,0,6.46,8.09c3,3.43,6.79,6.08,10.41,8.81a37.57,37.57,0,0,0,9,4.44,51.51,51.51,0,0,0,19.06,3.65l3.58-.19c2.56-.31,5.11-.65,7.67-1a76.73,76.73,0,0,0,10-2.66,99.25,99.25,0,0,0,9.72-4.2c7.23-3.38,14-8.22,20.13-13.25a197.34,197.34,0,0,0,29.48-30.36,395.07,395.07,0,0,0,26.94-38.75c2.74-4.44,5.2-9,7.73-13.6q5.69-10.21,11.34-20.42c1.32-2.37,2.54-4.71,3.7-7.16l9.91-20.73q2.88-6,5.75-12c1.89-4,3.39-8.14,5.06-12.17q4.22-10.26,8.45-20.51c1.41-3.42,3-6.82,4.24-10.31l12.4-33.79c3.17-8.65,6.14-17.38,9.14-26.1,11.49-33.25,22.74-66.65,35.57-99.43.47,9.89.8,19.79,1.57,29.65q.84,10.61,1.66,21.21c.82,10.49,2.18,20.92,3.79,31.3,2.19,14.26,5.28,28.73,11,42a86.87,86.87,0,0,0,9.08,16.85c1.66,2.31,3.52,4.48,5.4,6.61a51.2,51.2,0,0,0,8.71,7.29,38.05,38.05,0,0,0,8.1,4.1,49.86,49.86,0,0,0,8.84,2.71,51.17,51.17,0,0,0,19-.13,73.93,73.93,0,0,0,19.13-6,129,129,0,0,0,21.08-12.58c23.37-17.12,42.08-40,59-63.33,4.44-6.11,8.7-12.35,12.84-18.68a33.17,33.17,0,0,0,4.1-2.22,59.78,59.78,0,0,0,7.21-5.48,96.46,96.46,0,0,0,11.74-11.83,213.35,213.35,0,0,0,19.37-26.79,376.4,376.4,0,0,0,19-35.15,331.79,331.79,0,0,0,20.65-52.06c0,.23.07.46.11.69a131.51,131.51,0,0,0,4.18,19.37c1.9,6.18,4.51,12.46,8.92,17.29a29,29,0,0,0,5.8,5.31l2.34,1.47q2.4,1.05,4.87,1.94c2.55,1,6,1,8.65,1.24a35.27,35.27,0,0,0,8.7-.5,43.7,43.7,0,0,0,17.22-6.41,62.27,62.27,0,0,0,7.08-5.1q5.13-4.06,10-8.38a175.84,175.84,0,0,0,14-14.29q6.66-7.43,12.75-15.33a377.9,377.9,0,0,0,26.08-38.81c2.84-4.82,5.33-9.88,8-14.81,2.14-4,4.38-7.87,6.28-11.95q4.4-9.44,8.78-18.87c1.92-4.11,3.63-8.3,5.36-12.5l7-17.15c2.2-5.34,4.12-10.82,6.18-16.22,3-7.84,5.86-15.72,8.82-23.57q-.25,2.9-.53,5.79-1,11.17-2.17,22.36c-.6,5.88-1.19,11.75-1.85,17.63-.36,3.22-.72,6.44-1.11,9.66-.21,1.75-.42,3.5-.64,5.26a29.92,29.92,0,0,0-.49,5.5c.24,2,.54,4,.93,5.95.41,2.43,2.52,4.75,4.56,5.94s5.32,2,7.65,1,5.59-1.72,7.34-3.77a43.06,43.06,0,0,0,4.36-6c1.38-2.31,2.44-5,3.61-7.4,1.81-3.83,3.35-7.82,5-11.75,2.54-6.3,4.75-12.73,7.08-19.11,3.57-9.76,6.8-19.66,9.94-29.58,4.22-13.34,8.3-26.74,12.61-40.06.27,7.21.53,14.42,1,21.62.84,12.78,2.69,25.77,9,37.11a44.84,44.84,0,0,0,5.6,7.2c1.94,2.26,4.66,4,7.08,5.64l2.56,1.25a48.24,48.24,0,0,0,5.21,2c3.57,1.24,7.72,1.45,11.45,1.64,3,.17,6.14-.57,9-1a53.57,53.57,0,0,0,9.38-2.72,92.75,92.75,0,0,0,18-8.89c13-8,24.6-18.27,35.6-28.8,5.23-5,10.17-10.33,15.06-15.67,2.1-2.3,4.18-4.6,6.14-7q6.93-8.45,13.85-16.91c2.86-3.49,5.94-6.89,8.55-10.58l8.06-11.37a77.6,77.6,0,0,0,14.63-8.07,97,97,0,0,0,14.81-13.54,237.56,237.56,0,0,0,15.5-18.87,269.17,269.17,0,0,0,23.21-37c4.25-8.05,7.85-16.43,11.48-24.78l.6,1c5.56,8.71,13.82,15.08,22.62,20.23a93.6,93.6,0,0,0,14.55,6.47,98.07,98.07,0,0,0,17,4.23,211,211,0,0,0,35,3.1c24.48.32,48.49-5.5,71.69-12.79q17.82-5.61,35.27-12.36c12.22-4.71,24.13-10.27,35.93-15.93q35.25-16.94,70.17-34.59c7-3.53,13.94-7.2,20.89-10.84,8-4.19,16-8.43,23.75-13.2,0,0,0-.06,0-.05-12.29,5-25.08,8.86-37.67,13.05-11.69,3.9-23.42,7.73-35.11,11.66q-8.84,3-17.64,6c-14,4.8-27.8,10.09-41.65,15.24-16.18,6-32.57,11.26-49,16.6-17.24,5.61-34.69,10.5-52.62,13.25a192.76,192.76,0,0,1-24,1.21,199.66,199.66,0,0,1-22.77-1.73,123,123,0,0,1-25-6.16,84.94,84.94,0,0,1-13.63-7.82,58.38,58.38,0,0,1-6.35-6.23,75.46,75.46,0,0,1-4.72-7.94,70.69,70.69,0,0,1-2.22-8.05c-.12-.87-.25-1.74-.38-2.61a20.6,20.6,0,0,0-1.44-6.19,11.93,11.93,0,0,0-8.22-8.22,11.71,11.71,0,0,0-11.45,3l-1.62,1.77a12.94,12.94,0,0,0-2.94,4.76c-1.27,2.72-1.8,5.59-2.93,8.34q-1.44,3.48-2.9,6.94l0-.13c1.55-4.19,2.77-8.48,4.08-12.75,1.63-5.34,3.18-10.66,4.64-16.06,2.57-9.45,5.78-19.09,5.24-29-.14-1-.27-2.07-.41-3.1a51.89,51.89,0,0,0-2.07-5.27c-1.49-2.55-3.89-4-6.2-5.67l-2.83-1.19a14.09,14.09,0,0,0-5.74-1.35,11.43,11.43,0,0,0-5.75.12,18.9,18.9,0,0,0-6.34,1.5c-6.2,2.05-11.89,5.94-17,10a120.37,120.37,0,0,0-14.15,13.41c-10.14,11.05-18.57,23.39-26.72,35.94a254.51,254.51,0,0,0-20.44,38.09c-2.69,6.22-5.1,12.54-7.41,18.89-2.86,7.84-5,15.91-7.28,23.94a133.36,133.36,0,0,0-3.87,19.29,58.5,58.5,0,0,0-.5,9.35,50.78,50.78,0,0,0,1.45,9.24c.4,1,.8,2,1.19,3a17.39,17.39,0,0,0,2.74,5.13,24.46,24.46,0,0,0,6,6.24l2.44,1.84q2.57,1.17,5.17,2.24c.56.15,1.13.3,1.69.43q-7.47,9-14.93,18.08c-4.78,5.78-9.88,11.27-15,16.71a271.7,271.7,0,0,1-27.81,25.61c-7.25,5.35-14.56,10.39-22.72,14.22a71.62,71.62,0,0,1-12.06,3.65,45.63,45.63,0,0,1-6.19-.09,29.63,29.63,0,0,1-4.22-1.16,20.72,20.72,0,0,1-2.18-1.28A29.85,29.85,0,0,1,1479,669a25.82,25.82,0,0,1-1.88-3.12,71.93,71.93,0,0,1-3.61-13.35c-1.4-12.82-1.33-25.7-1.57-38.58-.08-4.61-.15-9.23-.33-13.84a83.8,83.8,0,0,0-1-12.75,18.42,18.42,0,0,0-1.47-5.51,75.77,75.77,0,0,0-3.27-7,10.41,10.41,0,0,0-6.37-4.9c-3.86-1.06-7.47.19-10.38,2.74-1.75,1.54-4,3.35-5.06,5.46a56.21,56.21,0,0,0-3.31,7.79c-1.06,3-2.06,6.1-3.1,9.15-2,5.71-3.92,11.45-5.87,17.18-3.14,9.24-6.13,18.52-9.17,27.79q-4.81,14.7-9.76,29.36.57-4.56,1.13-9.12,1.13-9,1.91-18.1c.4-4.83.59-9.68.61-14.52,0-4.56-1.19-8.91-2.52-13.22a10.23,10.23,0,0,0-12.38-7,11.67,11.67,0,0,0-3.86,1.34,11.11,11.11,0,0,0-4.82,4.11,9.88,9.88,0,0,0-2.14,3.9c-.85,2.18-1.65,4.37-2.5,6.54-2,5.2-3.77,10.54-5.68,15.78q-5,13.7-10,27.39c-3.13,8.57-6.4,17.08-9.63,25.6-3,7.78-6.28,15.42-9.47,23.11-4.55,9.78-8.84,19.7-14,29.2l-10.49,19.39c-3.4,6.3-7.41,12.33-11.31,18.32-4.34,6.66-9,13.11-13.84,19.44-4.89,6.17-10,12.13-15.29,18a179,179,0,0,1-18.72,17.5,68.88,68.88,0,0,1-9.08,5.75,49.19,49.19,0,0,1-7,2,57.78,57.78,0,0,1-8,.11,21.19,21.19,0,0,1-2.52-.66l-1.48-.87a40.56,40.56,0,0,1-4-4.1,28.94,28.94,0,0,1-2-3.56,91.09,91.09,0,0,1-3.55-11.58c-.92-3.89-1.46-7.9-2-11.86a258.11,258.11,0,0,1-1.74-45.06c.27-4.82.48-9.65.74-14.48.44-2.23.87-4.46,1.31-6.68.71-3.63,1.35-7.28,2.09-10.9a16.86,16.86,0,0,0,0-7.48,12.26,12.26,0,0,0-3.13-4.91,9.26,9.26,0,0,0-9-2.39,9.44,9.44,0,0,0-6.49,6.49c-2.58,8.5-2.62,17.57-2.86,26.39,0,.6,0,1.21,0,1.81s-.27,1.32-.41,2c-1.55,7.58-3.33,15.07-5.19,22.59-1.68,6.84-3.7,13.55-5.71,20.3-1.13,3.83-2.28,7.67-3.42,11.5a266.55,266.55,0,0,1-9.3,25.23c-.37.86-.74,1.71-1.12,2.56l2-5.45c1.43-3.91,2.93-7.8,4.13-11.79q3-9.84,5.92-19.69c1.45-4.79,2.49-9.69,3.67-14.56,2.53-10.48,4.68-21,6.77-31.61a107.7,107.7,0,0,0,1.88-11c.09-.92.17-1.84.25-2.75a29.84,29.84,0,0,0-2.41-13.91,18.63,18.63,0,0,0-10.76-9.61l-2.41-.78c-1.76-.27-3.53-.48-5.3-.64-1.87.23-3.75.49-5.62.79a39.43,39.43,0,0,0-5.33,2,46.35,46.35,0,0,0-7.58,4.59,60,60,0,0,0-6.79,6,77.19,77.19,0,0,0-5.83,7.06c-2,2.64-4,5.31-5.8,8.09a155.87,155.87,0,0,0-9.77,18.08c-3.65,7.49-6.68,15.3-9.57,23.1a411.91,411.91,0,0,0-12.54,41.4c-1.53,6-2.7,12.11-4,18.17q-1.76,8.22-3.51,16.44c-.3,1.43-.48,2.89-.72,4.33q-1,6.38-2.09,12.75c-1.35,8.24-2.48,16.5-3.63,24.77-.61,4.43-1,8.9-1.53,13.36-.37,3.39-.53,6.8-.63,10.22-.15,5.05-.44,11.1,2.23,15.66l.36.55q-5.62,7.93-11.54,15.68c-13.82,17.68-28.84,34.37-46.27,48.57a125.36,125.36,0,0,1-23.37,14,82.3,82.3,0,0,1-11.71,3.25,56.76,56.76,0,0,1-8.94.2,49.09,49.09,0,0,1-6.06-1.7,50.64,50.64,0,0,1-5.36-3.05,60.63,60.63,0,0,1-5.77-5.9,78.57,78.57,0,0,1-6.33-11.33c-4.34-11.4-6.64-23.25-8.35-35.29-1.1-9.18-2-18.44-2.31-27.68l-.51-16.46c-.25-7.93-.4-15.82-.44-23.75,0-8.31-.09-16.61-.3-24.92-.14-5.44-.27-10.87-.42-16.29-.08-3.37-.34-6.74-.6-10.09a68.31,68.31,0,0,0-1.6-9.85l-1.45-3.43a30.71,30.71,0,0,0-2.56-4.76c-4.64-7.79-15.82-9.45-22.27-2.87a16.68,16.68,0,0,0-2.33,2.63c-.71.93-1.43,1.85-2.14,2.79-.92,2.05-1.8,4.13-2.67,6.2-.85,2.81-1.77,5.56-2.71,8.33-1.41,4.17-2.91,8.29-4.39,12.42-2.72,7.55-5.59,15-8.45,22.55-6.38,16.76-12.77,33.5-19,50.3q-10.73,28.75-21.53,57.47c-5.77,15.33-11.94,30.5-18,45.7q-7.25,16.4-14.52,32.79c-4.3,9.7-9.4,19-14.21,28.46-2.05,4-3.91,8.2-6.18,12.1q-4.47,7.61-8.92,15.23L805.59,1144c-2.62,4.49-5.56,8.79-8.43,13.12-4.24,6.42-8.73,12.63-13.37,18.75-9.63,12.22-20,23.7-32,33.64a107.16,107.16,0,0,1-17.9,10.86,74.59,74.59,0,0,1-10.22,2.77,55.9,55.9,0,0,1-6.6.07,48.38,48.38,0,0,1-6.57-1.8,50.14,50.14,0,0,1-5.05-3.14,65.12,65.12,0,0,1-5.71-5.8c-2-2.77-3.9-5.6-5.65-8.58a128.27,128.27,0,0,1-6.66-13.45c-8.54-21-14.95-42.81-22.08-64.3-1.52-4.6-2.89-9.3-4.59-13.85L654,1094.15c-7.82-21-17.1-41.68-31.05-59.33a133.28,133.28,0,0,0-14.5-15.82c-.47-.43-.95-.85-1.45-1.27q12.54-23.26,25.14-46.49c9.76-18,19.76-35.91,29.65-53.86,7.56-13.71,15.26-27.34,23-41q6.32-4.49,12.57-9,27-19.54,54.17-38.84c16.51-11.77,32.91-23.68,48.94-36.1q25.94-20.07,51.64-40.44c16.77-13.37,33.5-26.81,49.78-40.76s32.45-28,48.31-42.37c7.78-7.08,15.66-14,23.29-21.26q13.94-13.12,27.85-26.28c7.41-7,14.58-14.22,21.85-21.35,3.39-3.32,6.58-6.89,9.86-10.32l14.4-15.08c7.64-8,14.89-16.38,22.31-24.57,6.69-7.38,13.11-15,19.58-22.58l9.14-10.71c3.91-4.58,7.57-9.42,11.34-14.12,2.77-3.45,5.66-6.84,8.27-10.42l12.1-16.6q18.36-25.17,35.21-51.43c5.76-9,11.6-17.86,17.05-27,5.59-9.4,11.29-18.74,16.62-28.28s10.88-19.27,16-29,10.51-19.74,15.57-29.7q15.24-30,29.87-60.33c2.17-4.53,4.08-9.21,6.12-13.82s4.25-9.46,6.2-14.27c4.47-11.1,8.94-22.18,13.2-33.36,1.81-4.74,3.33-9.51,4.86-14.34.63-2,1.36-4,1.86-6,.92-3.65,1.82-7.3,2.73-11,1.09-4.38,1.94-8.82,2.86-13.23.64-3.07,1.16-6.15,1.52-9.26l.33-2.85a34.55,34.55,0,0,0,0-7.47,38.93,38.93,0,0,0-1.61-8.49c-.8-1.91-1.6-3.81-2.42-5.71a36.57,36.57,0,0,0-3.68-5.09,39.17,39.17,0,0,0-6.09-5.77l-3.14-2.43a56.25,56.25,0,0,0-6.83-3.14,68.81,68.81,0,0,0-10-1.17l-3,.21Zm1.87,30.72a14.43,14.43,0,0,1,2.08.27h0l-2-.28Zm2.09.27.15,0-.19,0Zm.7.24,1.26.84c.62.56,1.2,1.12,1.77,1.73.09.14.17.29.25.44a23.11,23.11,0,0,1,.68,2.47,70.74,70.74,0,0,1-.2,12.26l-.78,7.49q-1,5.71-2,11.42c-.74,4.23-2,8.39-3.09,12.55-.78,3-1.67,6-2.66,9-1.35,4.13-2.56,8.32-4.07,12.38s-3,8.18-4.54,12.26c-1.32,3.59-2.52,7.25-4,10.79l-9,21.51c-4.21,9.31-8.4,18.63-12.78,27.86q-7.49,15.7-15.17,31.3c-4.94,10.07-10.09,20-15.23,30s-10.42,19.55-15.73,29.28-10.76,19-16.23,28.43c-5.33,9.18-11,18.14-16.62,27.14q-16.5,26.37-34.51,51.78-6.6,9.24-13.18,18.5l-8.75,11.19c-2.76,3.53-5.45,7.16-8.33,10.6q-11.13,13.28-22.25,26.58c-2.86,3.42-6,6.67-8.93,10l-15.24,17.07c-7,7.8-14.27,15.32-21.44,22.94-14.51,15.43-29.92,30-45.28,44.53-14.77,14-29.68,27.88-44.95,41.34C910.89,681.82,894.64,696,878,709.82s-33.18,27.26-50,40.59c-34.19,27-68.76,53.64-102.1,81.71-10.73,9-21.24,18.27-31.72,27.56q16.22-28.74,32.63-57.36c20.59-35.88,41.7-71.49,63-106.92q18.63-30.92,37.33-61.76c10-16.46,20-32.9,30.24-49.15q17.73-28.07,35.59-56c5.58-8.69,11.06-17.48,16.77-26.09q10.89-16.47,21.8-32.94c5.45-8.22,11.29-16.2,17-24.28,5.87-8.34,11.91-16.55,17.92-24.79,5.54-7.61,11.08-15.21,16.79-22.7q10.8-14.18,21.6-28.35l21.41-27.11c6.37-8.08,13.07-15.87,19.65-23.76q18.74-22.43,38.36-44.13c7.08-7.84,14.07-15.77,21.26-23.5q6.93-7.42,13.83-14.83c3.33-3.57,6.56-7.27,10-10.72,7.2-7.21,14.28-14.57,21.7-21.56,7.82-7.35,15.44-15,23.6-21.95l19.88-17L1211.27,152c4.26-3.27,8.72-6.26,13.19-9.24a175.07,175.07,0,0,1,25.1-14c2.69-1.07,5.38-2.08,8.14-3a46.41,46.41,0,0,1,7.61-1.77c.9-.07,1.81-.09,2.71-.08Zm.29,0Zm.08,0a13.29,13.29,0,0,1,2.89,1.23l-2.85-1.2,0,0Zm-4.69.21-.34,0,.34,0Zm8,3.51c.08.15.15.3.22.46v.06c-.07-.18-.14-.35-.22-.52Zm.23.48c.18.41.35.83.5,1.25l-.49-1.18v-.07Zm.4,3c0,.22.06.44.08.66,0-.22-.05-.44-.08-.66Zm404.76,290.51-2.54.35h0a19.85,19.85,0,0,1,2.57-.34Zm-6.22,1.48h0l-.12.05.12-.05Zm0,.22c-1.92,12.4-5.32,24.44-8.78,36.48-2.64,9.15-6.19,18-9.48,27q-2.82,6.36-5.67,12.73c-1.71,3.85-3.23,7.86-5.2,11.59q-4.38,8.34-8.78,16.68c-2,3.81-3.86,7.76-6.11,11.43q-5,8.16-10,16.29l-5,8.15c-.58.94-1.11,2-1.76,2.85l-4.07,5.67-2.08.92c-1.19.46-2.38.88-3.59,1.27a29.63,29.63,0,0,1-3.18.81,27.51,27.51,0,0,1-4.06,0c-.52-.11-1-.25-1.54-.4l-1.35-.82c-.38-.37-.75-.75-1.1-1.14-.28-.55-.56-1.09-.83-1.64a32.45,32.45,0,0,1-.85-3.22,62.91,62.91,0,0,1,.35-9.9,179.2,179.2,0,0,1,4.83-19.34c2.29-7.64,5-15.14,8-22.53A253.26,253.26,0,0,1,1616,486c3.15-5.22,6.59-10.25,10-15.27,3.87-5.61,7.75-11.17,11.82-16.62a171,171,0,0,1,23.2-24.68,78.65,78.65,0,0,1,9.73-6.12Zm-.1.88c0,.31-.08.62-.13.93.05-.31.09-.62.13-.93Zm-83.33,146.51,1.14,1.47,0,.1c-.41-.5-.81-1-1.18-1.57Zm1.17,1.52.39.5-.35-.42,0-.08Zm17.33,0h0l-1.56.66,1.57-.66Zm-16.5,1.75.67.29-.67-.29Zm7.35,1.24c-.78.14-1.56.24-2.35.31l2.35-.31Zm-2.76.12.79.11-.79-.11Zm-114.85,93.84,1.26,1.63c-.44-.53-.86-1.08-1.26-1.63Zm6,4.92,1.65.7c-.56-.21-1.11-.44-1.65-.7Zm-270,56.24-.09.63h0l.09-.62Zm-22.59,8.58-2.24.31h0a16.9,16.9,0,0,1,2.25-.3Zm-2.86.44c.06.3.12.59.19.89a65.63,65.63,0,0,1-.43,8.87c-1.33,8.36-2.88,16.66-4.47,25-.78,4.13-2,8.21-2.94,12.28-.79,3.25-1.46,6.53-2.46,9.73q-2.54,8.14-5.09,16.29c-.86,2.75-1.63,5.54-2.66,8.23q-5.11,13.32-10.24,26.65-5.13,11.21-10.3,22.42c-1.27,2.77-2.54,5.55-3.82,8.31s-2.81,5.12-4.19,7.64q-6.95,12.61-13.88,25.23c-2.59,4.73-5.49,9.31-8.46,13.84a62.23,62.23,0,0,1,.38-6.26c.37-3.3.75-6.59,1.11-9.87,1-6.4,2-12.81,3.25-19.15l3.15-15.73c.47-2.31.89-4.64,1.46-6.94q3.45-13.82,6.93-27.63c1.62-6.48,3.64-12.86,5.62-19.23,3.39-10.9,7.39-21.6,11.76-32.13,5.35-12.22,11.42-24.21,19.35-35a81.37,81.37,0,0,1,9.38-10,48.77,48.77,0,0,1,5.36-3.18c.33-.1.66-.2,1-.28Zm.2.1a14.22,14.22,0,0,1,.7,1.66l-.7-1.66Zm-2.41.62-.38.16.38-.16Zm47.77,94.32c.06.16.13.32.2.48-.07-.16-.14-.32-.2-.48Zm11,10.6,1.59.21c-.53-.05-1.07-.12-1.59-.21Zm-701.8,175.6a77.72,77.72,0,0,1,11.1.63,83.68,83.68,0,0,1,14.22,3.86,89.33,89.33,0,0,1,9.63,5.25q-6.83,12.78-13.69,25.55c-21.38,39.71-42.93,79.32-64.34,119q-30.14,55.88-61,111.35c-10.79,19.34-21.75,38.6-32.68,57.86-9.82,17.34-19.7,34.67-29.81,51.85q-9.24,15.69-18.45,31.39c-6,10.24-12.5,20.24-18.75,30.35-11.57,18.75-23.54,37.25-35.4,55.82-5.59,8.75-11.46,17.32-17.19,26-5.06,7.63-10.15,15.22-15.37,22.74-6.09,8.78-12,17.71-18.33,26.33q-10.38,14.16-20.78,28.31-8.56,11-17.09,22c-5.24,6.73-10.76,13.24-16.18,19.82s-11.2,13.16-17,19.63c-3.08,3.47-6.13,7-9.3,10.34a248,248,0,0,1-25.51,24,149.78,149.78,0,0,1-26.05,15.88c-1.21.47-2.43.91-3.67,1.34a37.83,37.83,0,0,1-6.45,1.62,44.3,44.3,0,0,1-5.15.09,44,44,0,0,1-4.8-1.4c-1-.52-2-1.09-2.9-1.71a58.06,58.06,0,0,1-5.73-5.69,76.15,76.15,0,0,1-6.67-12,150,150,0,0,1-7.58-31c-1.33-11.56-2.17-23.2-2.48-34.83s.88-23.48,2.34-35.11a660.24,660.24,0,0,1,16.53-80.18c7-25.87,16.14-51,26-75.84l12-28.27c1.15-2.67,2.16-5.44,3.48-8l7-13.68q8.28-16.17,16.57-32.32c1.17-2.3,2.5-4.53,3.76-6.78l10.47-18.64c3.87-6.87,7.46-14,11.82-20.57l22.64-34.3c1.76-2.66,3.42-5.45,5.3-8q4-5.51,8-11l19.55-26.88,33.18-40.13c1.14-1.38,2.43-2.67,3.64-4,3.63-3.94,7.25-7.86,10.87-11.8q11.43-12.4,22.84-24.81c3.68-4,7.68-7.67,11.57-11.45l24.09-23.37c4.86-4.72,10.2-9,15.32-13.38l20.79-17.91q9.36-7.07,18.72-14.15c5-3.76,9.81-7.7,15-11.11l24.92-16.31c5.37-3.52,11.06-6.56,16.69-9.64,8.56-4.68,17.35-8.84,26.31-12.67a207.6,207.6,0,0,1,45.72-13.17c4.06-.45,8.11-.73,12.22-.85Z" transform="translate(-46.36 -79.44)"/></svg>